<?xml version="1.0" standalone="no"?>
<!DOCTYPE svg PUBLIC "-//W3C//DTD SVG 20010904//EN"
 "http://www.w3.org/TR/2001/REC-SVG-20010904/DTD/svg10.dtd">
<svg version="1.0" xmlns="http://www.w3.org/2000/svg"
 width="1500.000000pt" height="1500.000000pt" viewBox="0 0 1500.000000 1500.000000"
 preserveAspectRatio="xMidYMid meet">

<g transform="translate(0.000000,1500.000000) scale(0.100000,-0.100000)"
fill="#000000" stroke="none">
<path d="M8165 11159 c-22 -4 -65 -17 -95 -30 -49 -20 -75 -22 -243 -25 l-188
-3 -127 -84 c-140 -93 -189 -120 -271 -148 -116 -40 -154 -90 -153 -201 0 -90
17 -145 60 -188 20 -20 44 -39 53 -42 9 -4 19 -23 22 -45 4 -21 20 -66 36
-100 42 -89 47 -122 23 -175 -10 -24 -22 -60 -26 -81 -4 -20 -10 -37 -15 -37
-4 0 -13 -24 -21 -52 -21 -84 -107 -303 -135 -344 -38 -56 -57 -128 -62 -245
-5 -100 -7 -106 -31 -120 -24 -13 -25 -18 -23 -88 2 -53 8 -82 21 -100 9 -15
25 -61 34 -103 8 -43 29 -103 47 -135 38 -71 36 -113 -10 -227 -43 -108 -49
-171 -22 -275 21 -86 119 -284 144 -294 8 -3 27 -27 42 -54 15 -26 38 -59 51
-74 47 -50 144 -195 177 -264 19 -39 47 -82 62 -95 15 -14 36 -33 46 -42 30
-28 23 -46 -21 -58 -152 -41 -468 -89 -494 -75 -6 3 -29 16 -51 30 -22 13 -74
41 -115 61 -80 39 -76 39 -172 7 -29 -9 -21 12 22 62 22 25 43 58 47 73 3 15
14 43 24 62 10 19 27 74 38 121 11 48 30 102 41 122 12 19 25 58 29 86 7 47 5
56 -35 137 -24 48 -51 95 -60 106 -51 56 -41 -28 14 -119 l40 -65 -14 -61 c-8
-34 -30 -109 -49 -167 -18 -58 -36 -126 -40 -152 -6 -41 -20 -62 -105 -160
-94 -109 -118 -134 -242 -247 -58 -54 -87 -105 -66 -117 13 -8 58 40 58 61 0
18 87 94 117 101 13 4 41 -1 63 -10 44 -17 147 -20 240 -7 30 5 62 5 70 0 8
-4 49 -45 90 -92 96 -108 135 -135 209 -149 49 -9 71 -8 133 6 85 21 190 73
250 125 71 60 97 70 148 61 25 -5 73 -9 108 -10 38 0 62 -4 62 -11 0 -23 33
-79 46 -79 19 0 17 35 -5 90 -15 35 -23 45 -42 45 -15 0 -24 6 -24 15 0 11 14
16 54 18 45 3 58 -1 80 -21 53 -48 91 -63 91 -36 0 3 -19 25 -42 47 -23 23
-39 44 -36 47 13 13 85 -16 113 -46 35 -36 75 -59 105 -59 29 0 25 18 -15 54
-19 18 -35 42 -35 53 0 57 120 136 222 146 36 3 92 15 124 26 50 18 194 94
239 127 19 14 9 44 -15 44 -24 0 -125 -47 -140 -65 -23 -28 -112 -53 -166 -48
-50 5 -55 3 -143 -55 -50 -33 -101 -64 -114 -67 -12 -4 -41 -25 -64 -48 -38
-37 -45 -39 -68 -29 -14 6 -25 20 -25 29 0 10 44 70 98 133 72 86 96 121 94
138 -3 18 16 44 81 111 47 49 110 126 141 172 122 185 325 419 429 494 l55 40
7 133 c6 114 10 132 24 132 43 0 53 -23 61 -131 4 -57 10 -111 14 -120 8 -19
-16 -38 -110 -88 -75 -40 -130 -89 -114 -105 5 -5 10 -16 10 -23 0 -17 -56
-69 -100 -92 -57 -31 -83 -65 -75 -99 5 -27 1 -33 -42 -65 -72 -53 -137 -123
-123 -132 7 -4 18 2 27 14 8 12 56 53 106 91 51 38 103 78 117 89 36 26 299
161 316 161 8 0 14 7 14 15 0 12 -7 14 -27 9 -30 -7 -176 -78 -233 -113 -19
-11 -41 -21 -48 -21 -31 0 2 29 114 100 104 66 119 79 122 105 5 43 19 55 66
55 39 0 136 -26 136 -36 0 -3 -7 -15 -16 -29 -14 -22 -14 -29 2 -82 21 -74 21
-73 44 -108 39 -60 44 -73 30 -90 -7 -8 -21 -15 -31 -15 -54 0 -526 -168 -574
-205 -38 -28 7 -16 146 39 244 97 372 135 499 151 66 8 79 19 56 44 -10 11
-16 27 -13 36 5 12 19 14 81 9 70 -6 75 -6 100 19 14 14 26 31 26 37 0 6 -39
10 -105 10 -92 0 -106 2 -112 18 -3 9 -21 51 -39 93 -19 42 -34 85 -34 96 0
35 -37 71 -81 78 -74 13 -79 25 -72 177 3 73 10 135 14 138 5 3 25 53 45 110
20 58 51 126 70 153 42 58 44 100 9 211 -13 43 -27 99 -31 125 -5 36 -18 59
-57 104 -27 32 -63 65 -78 73 -36 18 -38 52 -6 82 42 39 74 45 246 44 l164 -1
50 55 c27 30 68 78 91 106 22 29 60 70 83 91 57 52 65 93 29 147 -14 22 -26
45 -26 51 0 7 -17 30 -38 53 -21 22 -55 73 -76 111 -21 39 -60 104 -87 145
-26 41 -51 87 -54 103 -4 15 -11 27 -15 27 -5 0 -24 33 -44 73 -80 164 -194
292 -334 375 -85 50 -77 49 -336 62 -235 12 -321 24 -396 55 -67 27 -112 34
-165 24z m155 -60 c91 -44 140 -56 260 -69 78 -8 132 -8 210 1 100 11 108 11
154 -10 78 -34 215 -122 221 -141 3 -10 23 -34 44 -53 21 -19 61 -78 91 -133
29 -54 131 -230 227 -390 95 -160 173 -297 173 -306 0 -8 -11 -25 -25 -38 -14
-13 -25 -26 -25 -30 0 -3 -38 -44 -84 -91 -83 -82 -86 -84 -133 -84 -26 -1
-111 -5 -187 -9 l-139 -9 7 74 c4 41 12 78 17 84 6 5 61 12 124 14 96 3 115 1
115 -11 0 -24 -32 -45 -77 -52 -58 -8 -95 -24 -88 -36 14 -22 121 -5 204 34
28 13 51 60 43 88 -7 30 -40 45 -119 57 -89 14 -147 14 -194 1 -34 -10 -37
-13 -42 -60 -7 -58 -63 -228 -105 -321 -25 -57 -33 -66 -67 -76 -50 -16 -85
-1 -147 64 -26 26 -55 56 -65 66 -33 33 -202 135 -270 162 -97 39 -273 82
-393 95 -225 27 -541 -26 -769 -126 l-54 -24 6 49 c3 27 27 104 52 172 33 88
49 148 55 208 10 94 24 115 126 191 90 68 124 104 117 128 -3 14 -13 22 -27
22 -16 0 -25 11 -39 48 -9 26 -21 53 -26 61 -13 20 -31 4 -31 -27 l-1 -27 -29
35 c-23 26 -30 44 -30 76 0 58 -16 96 -38 92 -12 -2 -18 -14 -20 -41 -3 -29 5
-50 32 -95 49 -78 71 -102 93 -102 20 0 43 -37 43 -69 0 -10 -28 -40 -62 -68
-35 -28 -75 -65 -91 -82 -52 -59 -58 -50 -76 131 -10 101 -28 150 -60 168 -21
11 -51 4 -51 -12 0 -5 12 -29 26 -53 26 -46 26 -85 -1 -85 -33 0 -59 112 -49
212 l6 68 62 34 c33 19 91 51 128 70 37 20 116 68 175 107 l108 71 115 -5 c88
-5 121 -3 140 8 17 9 43 12 80 9 39 -4 62 0 80 10 106 64 184 71 280 25z
m-198 -1239 c126 -21 222 -52 315 -99 57 -28 62 -33 51 -51 -10 -16 -9 -23 9
-42 21 -24 43 -61 43 -74 0 -4 -6 -1 -12 8 -19 23 -58 33 -58 15 0 -8 7 -20
15 -27 8 -7 15 -23 15 -35 0 -13 11 -30 26 -40 20 -13 23 -19 14 -30 -15 -18
-8 -29 29 -45 36 -15 49 -40 21 -40 -27 0 -25 -16 5 -36 28 -18 33 -34 10 -34
-8 0 -15 -9 -15 -20 0 -11 6 -20 14 -20 7 0 25 -9 39 -20 14 -11 30 -20 36
-20 19 0 12 28 -11 45 -23 16 -22 16 17 13 40 -3 40 -3 37 30 -2 17 1 32 7 32
6 0 16 18 22 40 13 43 39 74 46 54 3 -10 59 6 159 47 31 12 86 7 114 -11 23
-14 10 -18 -85 -27 l-90 -8 -22 -45 c-15 -29 -23 -62 -23 -97 0 -44 4 -54 23
-64 30 -17 44 -36 63 -93 18 -53 9 -96 -21 -96 -11 0 -15 12 -15 48 0 36 -5
54 -20 67 -24 22 -39 12 -22 -15 7 -11 12 -39 12 -64 0 -59 17 -73 71 -57 54
16 66 44 46 107 -8 27 -18 61 -21 76 -3 15 -20 36 -36 48 -17 12 -30 29 -30
39 0 23 62 109 75 105 6 -2 41 -7 79 -11 l69 -8 23 -110 c35 -169 30 -225 -30
-296 -14 -16 -28 -39 -31 -51 -12 -40 -46 -106 -61 -118 -7 -7 -14 -19 -14
-26 0 -10 -12 -14 -39 -14 -34 0 -42 5 -65 40 -14 22 -26 48 -26 57 0 10 -9
36 -19 58 -27 55 -70 208 -77 276 -5 45 -2 65 15 104 20 46 20 85 0 85 -5 0
-9 -10 -9 -22 0 -13 -12 -43 -27 -68 -62 -105 -17 -315 112 -525 43 -69 31
-206 -28 -320 -14 -27 -34 -55 -45 -62 -33 -20 -183 -193 -297 -343 -122 -161
-240 -284 -353 -368 -86 -64 -246 -149 -329 -177 -29 -9 -53 -19 -53 -22 0 -3
8 -12 18 -19 15 -12 13 -13 -18 -14 -29 0 -105 31 -220 89 -8 5 -17 16 -18 26
-3 14 1 16 21 11 49 -12 38 14 -25 58 -92 64 -104 78 -231 268 -123 183 -188
308 -206 396 -24 117 -6 281 40 360 23 39 24 60 5 104 -36 84 -70 226 -70 295
-1 39 2 74 6 78 3 4 56 -1 118 -10 61 -10 113 -15 116 -12 10 10 -16 47 -44
61 -15 8 -65 20 -110 26 l-82 12 0 68 c0 152 48 330 102 375 46 38 151 89 248
119 102 31 260 67 260 58 0 -4 -34 -41 -76 -83 -48 -49 -74 -81 -69 -89 5 -8
34 14 89 68 46 45 96 85 116 91 19 7 77 15 128 18 50 3 92 10 92 14 0 13 37
11 162 -11z m418 -159 c0 -5 22 -23 49 -40 52 -32 75 -61 69 -89 -3 -13 -22 0
-75 52 -65 63 -79 86 -52 86 5 0 9 -4 9 -9z m185 -181 c3 -5 -1 -10 -9 -10 -9
0 -16 5 -16 10 0 6 4 10 9 10 6 0 13 -4 16 -10z m-562 -1914 c-15 -19 -57 -70
-91 -113 -52 -64 -75 -83 -127 -108 -77 -37 -102 -58 -110 -96 -6 -25 -11 -29
-40 -29 -59 0 -65 6 -65 69 0 87 11 96 99 84 40 -5 74 -6 76 -3 5 8 -18 32
-50 55 -19 13 -17 14 23 15 23 0 42 4 42 9 0 5 17 17 38 26 20 10 49 28 64 41
15 12 40 25 55 28 16 4 42 18 58 31 45 36 62 31 28 -9z m-1292 -187 c11 -6 29
-19 40 -30 10 -10 27 -19 37 -19 11 0 24 -11 30 -24 17 -38 69 -48 166 -31 44
7 104 16 131 20 28 3 95 18 150 32 61 16 129 27 174 27 93 1 107 -17 25 -34
-32 -7 -65 -16 -73 -20 -9 -4 -47 -15 -86 -24 -45 -11 -79 -25 -94 -41 l-25
-24 39 -17 39 -16 -39 -14 c-22 -7 -55 -14 -72 -14 -35 0 -44 -14 -17 -24 36
-14 106 -5 152 19 67 35 80 47 84 80 3 24 10 31 56 46 61 21 82 16 82 -17 0
-30 -38 -58 -166 -123 -146 -73 -176 -82 -273 -80 -106 2 -125 14 -279 179
-73 77 -121 120 -134 120 -15 0 -18 -4 -13 -17 15 -36 10 -46 -25 -56 -37 -10
-159 -5 -179 8 -20 11 14 41 62 54 23 7 53 21 67 31 28 22 108 27 141 9z"/>
<path d="M8025 10921 c-3 -6 3 -50 15 -99 11 -48 23 -98 26 -112 l6 -25 19 24
c25 31 26 132 1 181 -17 35 -54 52 -67 31z"/>
<path d="M8413 10911 c-41 -25 -75 -86 -108 -188 -38 -121 -44 -118 -60 24 -6
60 -23 113 -36 113 -19 0 -32 -48 -31 -118 1 -44 -4 -87 -13 -108 -7 -18 -12
-34 -10 -34 2 0 -2 -12 -10 -27 -8 -15 -12 -30 -9 -35 12 -19 32 -5 49 35 l19
42 4 -47 c4 -58 20 -62 55 -15 30 40 51 85 73 162 11 37 36 84 66 124 26 35
48 70 48 77 0 17 1 18 -37 -5z"/>
<path d="M7722 10878 c-19 -19 -14 -41 17 -89 25 -39 212 -229 226 -229 15 0
2 62 -19 87 -12 15 -34 46 -48 68 -30 48 -123 152 -148 165 -11 6 -21 5 -28
-2z"/>
<path d="M7521 10826 c-14 -56 -14 -121 -1 -147 19 -34 30 -20 30 39 0 31 6
69 14 84 12 23 12 29 -1 47 -21 31 -29 26 -42 -23z"/>
<path d="M8774 10721 c-33 -16 -70 -32 -81 -35 -30 -9 -103 -80 -103 -99 0
-26 21 -20 69 18 43 34 71 44 71 26 0 -5 -24 -38 -54 -73 -29 -35 -58 -73 -65
-85 -16 -32 -14 -73 4 -73 9 0 30 -7 48 -16 22 -12 32 -13 35 -5 10 31 90 135
161 211 44 46 78 86 76 88 -6 7 -65 -23 -104 -52 -19 -14 -37 -24 -39 -21 -10
9 28 53 57 66 36 16 48 49 24 67 -23 17 -30 16 -99 -17z"/>
<path d="M9067 10686 c-45 -17 -54 -23 -140 -106 -83 -79 -172 -188 -162 -198
4 -4 26 16 48 43 23 28 67 75 97 106 l56 56 82 6 c119 9 181 48 129 81 -35 23
-69 27 -110 12z"/>
<path d="M7726 10594 c-6 -16 9 -54 28 -66 23 -16 36 -7 36 23 0 46 -50 79
-64 43z"/>
<path d="M7624 10565 c-18 -45 -18 -61 3 -70 36 -13 70 64 41 93 -19 19 -28
14 -44 -23z"/>
<path d="M8329 10585 c-35 -19 -56 -73 -32 -82 11 -4 27 6 50 31 47 51 36 80
-18 51z"/>
<path d="M7820 10555 c0 -8 5 -15 10 -15 6 0 10 7 10 15 0 8 -4 15 -10 15 -5
0 -10 -7 -10 -15z"/>
<path d="M8085 10551 c-7 -12 12 -24 25 -16 11 7 4 25 -10 25 -5 0 -11 -4 -15
-9z"/>
<path d="M8482 10520 c-15 -26 -23 -30 -60 -30 -53 0 -53 -22 -1 -31 19 -3 46
-10 61 -14 24 -6 29 -3 38 20 27 72 -3 116 -38 55z"/>
<path d="M9064 10540 c-12 -4 -52 -29 -88 -54 -37 -25 -71 -46 -76 -46 -5 0
-12 -9 -15 -20 -3 -11 -21 -31 -40 -46 -39 -30 -50 -51 -34 -70 17 -20 56 -17
139 11 40 14 84 25 96 25 48 0 32 -21 -43 -57 -73 -36 -115 -76 -95 -94 4 -4
57 -1 117 7 129 15 271 18 279 5 4 -5 -13 -12 -36 -16 -65 -10 -106 -24 -111
-39 -8 -21 30 -24 98 -10 72 15 165 18 165 4 0 -26 -237 -65 -305 -50 -60 13
-107 -21 -49 -36 66 -17 263 15 392 63 73 28 81 38 44 57 -29 15 -46 41 -37
56 15 24 -217 39 -316 20 -156 -30 -75 39 91 77 41 9 77 18 79 20 12 9 -26 64
-54 77 -43 21 -97 20 -225 -3 -58 -11 -106 -18 -107 -17 -8 8 58 56 119 86 39
19 72 40 72 45 1 13 -34 16 -60 5z"/>
<path d="M9374 10065 c-15 -39 15 -58 108 -70 46 -6 56 -4 62 10 15 41 -39 75
-121 75 -30 0 -45 -5 -49 -15z"/>
<path d="M8910 10016 c0 -15 76 -86 92 -86 15 0 8 10 -39 55 -52 50 -53 51
-53 31z"/>
<path d="M8853 9933 c9 -9 19 -14 23 -11 10 10 -6 28 -24 28 -15 0 -15 -1 1
-17z"/>
<path d="M8956 9861 c-3 -5 1 -14 8 -20 16 -13 32 2 21 19 -8 12 -22 13 -29 1z"/>
<path d="M8890 9715 c0 -25 14 -34 24 -16 8 12 -3 41 -15 41 -5 0 -9 -11 -9
-25z"/>
<path d="M7743 9780 c-89 -44 -221 -156 -204 -173 7 -7 30 8 71 46 72 67 137
107 199 123 28 7 47 18 49 28 5 26 -29 19 -115 -24z"/>
<path d="M7769 9721 c-84 -33 -172 -106 -243 -203 -46 -62 -12 -51 44 15 67
80 120 122 198 159 34 17 59 34 56 39 -3 5 -6 9 -7 9 -1 -1 -23 -9 -48 -19z"/>
<path d="M7791 9636 c-46 -25 -97 -57 -113 -73 -28 -26 -58 -79 -58 -102 0
-13 120 41 173 78 32 22 58 31 108 36 73 7 119 -1 119 -20 0 -20 36 -46 54
-39 21 8 20 14 -9 54 -14 19 -25 41 -25 50 0 9 -11 23 -24 30 -21 11 -31 11
-57 0 -30 -13 -33 -12 -47 8 -8 12 -20 22 -26 22 -6 0 -49 -20 -95 -44z"/>
<path d="M7497 9564 c-4 -4 -7 -14 -7 -23 0 -11 3 -12 11 -4 6 6 10 16 7 23
-2 6 -7 8 -11 4z"/>
<path d="M9044 9356 c-3 -14 1 -58 10 -97 27 -119 23 -147 -29 -208 -33 -39
-45 -61 -45 -84 0 -46 10 -77 25 -77 21 0 35 25 41 76 9 79 12 87 44 122 27
30 30 40 30 95 -1 66 -36 188 -57 195 -7 2 -15 -8 -19 -22z"/>
<path d="M7804 9239 c-56 -16 -151 -136 -127 -160 6 -6 20 7 40 39 27 44 38
52 102 77 71 27 88 48 40 52 -13 1 -38 -3 -55 -8z"/>
<path d="M8158 9204 c-30 -16 -35 -29 -15 -37 24 -9 65 5 88 29 l22 24 -34 0
c-19 -1 -46 -8 -61 -16z"/>
<path d="M7865 9143 c-22 -14 -56 -40 -75 -59 -19 -18 -47 -38 -63 -43 -27
-11 -45 -36 -33 -48 10 -10 74 28 131 78 32 28 67 49 89 53 37 7 48 29 20 40
-22 8 -24 8 -69 -21z"/>
<path d="M7551 9111 c-31 -56 18 -171 72 -171 22 0 21 8 -17 115 -27 75 -39
87 -55 56z"/>
<path d="M7335 9034 c6 -33 4 -36 -12 -29 -79 31 -183 -7 -183 -67 0 -28 14
-21 27 12 10 27 15 30 57 30 56 0 111 -21 125 -48 21 -40 14 -49 -46 -60 -87
-16 -132 -38 -139 -68 -8 -33 10 -47 51 -39 93 18 95 18 95 -1 0 -11 -10 -39
-21 -64 -23 -51 -24 -66 -14 -165 7 -66 6 -71 -19 -98 -14 -15 -26 -35 -26
-44 0 -9 -9 -31 -21 -50 -20 -32 -20 -34 -3 -61 29 -44 116 -132 125 -126 11
6 -5 46 -32 83 -30 41 -19 65 24 58 63 -10 82 1 121 66 20 34 36 74 36 88 0
23 7 30 36 39 43 15 51 8 35 -26 -21 -48 -2 -52 114 -21 103 27 105 28 167 91
l63 64 71 6 c40 4 82 3 97 -3 30 -12 39 2 24 37 -11 25 -10 24 -88 22 -44 -1
-58 2 -63 15 -5 14 -14 16 -41 11 -26 -5 -46 -1 -85 20 -30 16 -57 23 -68 19
-18 -7 -17 -8 68 -73 16 -13 30 -30 30 -38 0 -28 -51 -63 -108 -75 -32 -6 -81
-17 -109 -24 -49 -11 -53 -11 -53 6 0 22 22 34 76 44 26 4 52 17 69 35 26 27
26 30 14 65 -26 71 -61 73 -42 3 15 -58 8 -71 -35 -64 -46 7 -132 -12 -139
-31 -4 -9 -1 -23 5 -33 9 -14 6 -19 -14 -29 -35 -16 -84 -14 -84 3 0 11 -10
13 -39 9 -36 -5 -39 -3 -50 27 -18 52 -13 99 20 190 67 186 73 257 24 306 -35
35 -49 31 -40 -12z m-95 -228 c0 -8 -7 -16 -15 -20 -15 -5 -21 14 -8 27 11 12
23 8 23 -7z m170 -354 c0 -10 -17 -44 -37 -75 -27 -41 -44 -57 -60 -57 -21 0
-23 5 -23 54 0 53 0 54 43 75 52 26 77 27 77 3z"/>
<path d="M8135 9061 c-15 -25 91 -49 126 -30 l24 12 -30 13 c-35 15 -111 18
-120 5z"/>
<path d="M7934 9040 c-11 -11 -42 -29 -70 -38 -54 -20 -61 -39 -12 -34 47 4
112 43 116 70 4 27 -7 28 -34 2z"/>
<path d="M8110 8697 c0 -7 13 -23 30 -35 35 -26 49 -73 48 -155 -1 -79 15 -94
41 -36 12 24 21 60 21 79 0 51 -34 116 -72 140 -38 23 -68 26 -68 7z"/>
<path d="M7944 8549 c-15 -25 -119 -80 -254 -134 -150 -60 -196 -85 -267 -142
-46 -38 -57 -57 -45 -79 7 -12 19 -3 54 39 54 62 115 97 284 163 65 25 135 55
154 67 52 31 110 77 110 88 0 13 -27 11 -36 -2z"/>
<path d="M8605 8423 c-4 -16 -9 -41 -12 -58 -10 -79 -78 -161 -175 -211 -26
-13 -50 -29 -53 -34 -15 -25 9 -23 63 5 79 41 154 118 176 180 10 28 24 62 32
77 20 38 18 68 -5 68 -12 0 -21 -10 -26 -27z"/>
<path d="M7414 8079 c-14 -44 -7 -155 13 -200 34 -75 125 -139 220 -155 55 -8
143 18 213 63 77 51 253 224 240 237 -6 6 -37 -16 -92 -70 -102 -98 -147 -134
-216 -168 -108 -55 -241 -27 -289 60 -12 21 -29 82 -38 134 -18 102 -37 140
-51 99z"/>
<path d="M5671 8991 c-5 -9 -32 -47 -61 -86 -38 -52 -50 -76 -48 -97 2 -17 -3
-32 -12 -38 -11 -7 -14 -41 -15 -172 0 -158 1 -165 28 -219 27 -55 35 -99 19
-99 -26 0 -64 52 -87 119 -13 40 -29 79 -35 86 -6 7 -17 37 -26 66 -29 96 -58
143 -99 158 -26 9 -40 10 -48 2 -6 -6 -11 -60 -11 -138 0 -112 3 -137 26 -203
40 -116 135 -302 167 -327 15 -12 40 -41 56 -65 16 -24 43 -59 60 -78 38 -42
95 -224 102 -329 3 -36 18 -108 34 -159 42 -134 40 -152 -20 -197 -71 -51
-191 -201 -191 -238 0 -32 35 -2 84 71 61 92 156 180 156 144 0 -5 -29 -41
-65 -80 -36 -40 -65 -82 -65 -92 0 -24 13 -26 30 -5 22 27 30 16 30 -44 0 -65
15 -90 42 -68 12 8 17 36 20 95 4 71 10 93 41 153 21 38 37 76 37 84 0 7 -15
66 -34 132 -18 65 -39 153 -46 196 -16 108 -55 248 -85 306 -13 27 -43 64 -65
83 -22 18 -61 63 -86 100 -25 37 -50 70 -55 74 -12 7 -86 152 -106 209 -28 76
-42 150 -43 222 0 80 6 103 26 103 19 0 40 -44 60 -126 13 -51 26 -77 49 -99
17 -16 39 -50 49 -75 17 -42 17 -45 0 -57 -10 -7 -21 -13 -26 -13 -4 0 -8 -5
-8 -10 0 -7 13 -8 35 -4 32 6 39 2 80 -39 52 -51 57 -83 20 -115 -24 -21 -33
-42 -18 -42 4 0 22 14 40 32 30 29 39 32 121 38 48 3 94 10 101 14 23 14 -8
26 -70 26 l-56 0 -23 50 c-13 27 -32 58 -43 67 -46 42 -57 93 -57 278 0 173 0
173 30 230 17 31 30 64 30 72 0 8 9 28 21 45 17 23 27 29 53 26 l31 -3 -2 -84
c-1 -69 -5 -87 -23 -106 -20 -21 -20 -24 -6 -66 18 -51 21 -190 5 -206 -9 -9
-2 -20 24 -43 20 -17 55 -69 79 -115 l43 -85 55 0 c67 0 128 -27 168 -71 20
-22 34 -30 46 -26 39 15 -38 78 -132 108 -20 6 -49 16 -64 21 -51 18 -73 75
-88 225 -12 116 -6 140 55 223 38 52 41 60 23 60 -14 -1 -67 -68 -91 -115 -11
-23 -37 -146 -37 -179 0 -3 -9 -6 -19 -6 -18 0 -20 9 -23 93 -2 50 1 130 6
177 11 113 11 209 -2 222 -5 5 -26 13 -46 18 -29 6 -38 5 -45 -9z"/>
<path d="M6189 8971 c-99 -35 -178 -79 -209 -115 -24 -30 -1 -29 37 1 70 56
255 132 288 119 25 -9 18 -71 -12 -107 -29 -34 -94 -68 -130 -69 -28 0 -37
-14 -24 -38 12 -22 -10 -63 -70 -131 -33 -37 -37 -46 -28 -64 6 -11 15 -52 20
-91 14 -108 31 -176 45 -176 19 0 53 48 65 94 6 22 14 46 18 51 4 6 13 30 20
54 l13 44 103 -5 c123 -7 171 -26 285 -111 73 -56 100 -68 100 -46 0 14 -50
61 -142 131 -72 55 -78 58 -174 73 -163 26 -185 18 -216 -75 -11 -33 -21 -46
-36 -48 -18 -3 -26 6 -42 43 -26 61 -26 66 11 101 17 16 51 58 77 92 26 37 65
75 90 89 54 32 81 82 74 138 -4 35 -35 86 -51 84 -3 0 -54 -17 -112 -38z"/>
<path d="M6300 8413 c0 -8 11 -26 25 -39 33 -30 32 -59 -2 -81 -16 -9 -30 -18
-32 -20 -2 -1 8 -16 22 -32 17 -21 32 -61 47 -124 25 -110 31 -118 146 -175
l81 -41 29 -70 c34 -83 87 -161 110 -161 25 0 10 71 -28 141 l-32 58 18 55
c17 57 33 68 56 41 9 -11 17 -12 31 -4 26 14 14 30 -21 27 -36 -3 -56 14 -71
59 -13 40 -16 171 -5 219 6 29 5 32 -21 37 -15 3 -31 3 -35 0 -14 -8 -8 -195
8 -260 17 -67 13 -110 -11 -119 -7 -3 -54 15 -104 41 l-91 47 0 47 c0 25 -9
78 -20 116 -24 84 -25 123 -4 153 22 31 74 30 113 -4 24 -20 31 -22 31 -10 0
23 -59 56 -101 56 -21 0 -47 8 -61 20 -14 11 -37 24 -52 30 -21 8 -26 7 -26
-7z"/>
<path d="M6717 8343 c-14 -13 -6 -33 13 -33 13 0 20 7 20 20 0 19 -20 27 -33
13z"/>
<path d="M8910 8113 c-8 -3 -42 -18 -75 -33 -33 -14 -75 -32 -92 -39 -18 -8
-33 -17 -33 -21 0 -18 16 -17 67 6 31 13 65 24 77 23 25 0 33 6 -115 -82 -58
-34 -157 -101 -220 -149 -197 -149 -425 -368 -383 -368 4 0 56 48 118 107 240
231 541 440 715 498 58 19 83 42 60 56 -15 9 -95 11 -119 2z"/>
<path d="M9479 8042 c-16 -16 -54 -36 -97 -50 -39 -12 -81 -31 -94 -42 l-23
-19 22 -22 c20 -21 31 -23 110 -21 80 2 89 0 104 -20 22 -29 49 -18 49 21 0
35 -28 163 -38 173 -4 4 -19 -5 -33 -20z"/>
<path d="M5730 8044 c0 -4 16 -24 35 -46 20 -21 43 -54 52 -73 10 -22 24 -35
35 -35 59 0 159 -88 243 -214 57 -85 78 -87 55 -5 -20 70 -113 163 -215 214
-35 17 -56 36 -70 62 -29 53 -135 130 -135 97z"/>
<path d="M6100 8011 c-8 -5 -28 -13 -45 -18 -16 -4 -28 -13 -26 -18 1 -6 8 -8
15 -6 6 2 39 6 74 9 51 4 62 8 60 21 -4 18 -54 26 -78 12z"/>
<path d="M8435 7850 c3 -5 8 -10 11 -10 2 0 4 5 4 10 0 6 -5 10 -11 10 -5 0
-7 -4 -4 -10z"/>
<path d="M8755 7798 c-127 -42 -332 -145 -317 -160 7 -7 53 11 134 50 67 33
147 67 176 77 48 15 63 28 45 38 -5 2 -21 0 -38 -5z"/>
<path d="M6324 7498 c3 -18 15 -45 26 -60 11 -15 20 -36 20 -46 0 -11 9 -22
20 -25 25 -6 26 11 3 73 -28 77 -82 122 -69 58z"/>
<path d="M6259 7060 c-62 -32 -234 -88 -323 -106 -80 -16 -95 -22 -81 -36 15
-14 209 37 358 94 43 16 80 28 82 26 2 -1 -19 -32 -46 -68 -58 -77 -88 -145
-71 -162 20 -20 98 24 107 59 3 15 22 61 41 102 19 40 34 77 34 81 0 7 -46 31
-58 29 -4 -1 -23 -9 -43 -19z"/>
<path d="M5465 6909 c-8 -23 0 -94 17 -151 9 -30 16 -38 35 -38 28 0 31 6 35
93 3 45 0 67 -7 67 -6 0 -21 11 -33 25 -27 31 -39 32 -47 4z"/>
<path d="M5473 6543 c-10 -3 -13 -41 -13 -138 0 -73 -3 -146 -6 -163 -6 -27
-10 -30 -58 -36 -144 -18 -136 -15 -136 -52 l0 -34 95 0 95 0 -5 -52 c-12
-134 -14 -346 -5 -435 14 -128 34 -196 70 -236 26 -30 33 -32 89 -31 129 2
272 107 370 271 22 37 41 60 41 50 0 -34 31 -79 65 -93 53 -22 132 -18 193 11
30 14 56 25 58 25 2 0 4 -25 4 -56 0 -68 23 -120 64 -146 24 -15 45 -18 96
-16 121 6 242 90 326 223 46 74 114 218 114 243 0 20 -70 15 -76 -5 -14 -43
-41 -102 -71 -154 -33 -58 -118 -159 -134 -159 -25 0 -33 51 -34 207 0 147 -2
164 -21 190 -37 51 -148 87 -217 69 -23 -5 -24 -10 -20 -50 l5 -45 -59 0 c-71
1 -123 -12 -180 -45 -36 -21 -44 -22 -60 -10 -29 22 -36 17 -68 -44 -78 -149
-198 -302 -237 -302 -39 0 -43 33 -43 322 0 152 3 279 7 283 3 4 46 12 95 18
l88 12 3 38 3 38 -93 -2 -93 -2 0 99 c0 123 -18 160 -94 193 -46 20 -127 27
-158 14z m870 -735 c-6 -36 -28 -58 -85 -88 -45 -24 -68 -17 -68 21 0 51 61
95 137 98 20 1 22 -3 16 -31z"/>
<path d="M9325 6545 c-6 -3 -9 -36 -7 -77 1 -40 -1 -113 -5 -163 l-8 -90 -98
-14 -98 -14 3 -31 3 -31 91 -3 91 -3 -1 -267 c-1 -289 6 -353 50 -429 32 -55
76 -70 156 -54 114 24 215 106 309 249 l48 73 15 -35 c37 -89 158 -100 299
-28 4 2 7 -16 7 -40 0 -69 17 -114 57 -148 35 -31 39 -32 108 -28 93 6 172 48
254 133 l60 62 12 -29 c16 -39 62 -76 106 -84 47 -9 118 10 161 43 18 14 35
23 36 22 1 -2 8 -30 15 -62 22 -104 95 -150 199 -126 93 20 172 81 226 173 32
54 80 176 95 242 l12 50 62 -13 c34 -7 72 -13 85 -13 27 0 27 12 1 -140 -25
-144 -30 -308 -11 -361 7 -20 26 -49 43 -65 27 -26 37 -29 92 -28 132 1 247
106 334 304 20 46 38 73 46 71 6 -2 40 -6 74 -9 51 -3 71 0 118 22 32 14 59
26 61 26 2 0 4 -25 4 -56 0 -68 23 -120 64 -146 24 -15 45 -18 96 -16 80 4
155 39 233 108 l53 48 17 -49 c21 -59 53 -82 112 -81 84 1 119 41 165 192 55
179 121 296 104 184 -11 -76 -9 -197 4 -221 15 -27 55 -39 91 -27 34 12 88 86
150 204 l51 97 -27 12 c-31 14 -24 21 -89 -99 -26 -47 -62 -103 -82 -124 l-35
-39 8 147 c8 157 1 186 -44 201 -27 8 -85 -20 -116 -57 -27 -32 -29 -30 -40
35 -8 48 -57 104 -103 118 -21 6 -57 9 -82 7 -45 -3 -45 -3 -42 -38 2 -19 -4
-96 -13 -170 -16 -123 -20 -140 -51 -185 -18 -28 -49 -66 -69 -85 -35 -34 -37
-34 -51 -16 -17 23 -18 39 -19 218 0 121 -2 139 -21 165 -37 51 -148 87 -217
69 -23 -5 -24 -10 -20 -51 l6 -44 -56 0 c-70 1 -111 -8 -169 -37 -26 -13 -54
-24 -63 -24 -8 0 -15 -6 -15 -14 0 -8 -10 -31 -21 -51 -14 -23 -24 -64 -29
-112 -6 -60 -17 -93 -53 -166 -44 -89 -109 -169 -124 -153 -13 12 -8 121 12
268 18 130 18 138 1 182 -27 70 -93 106 -197 106 -54 0 -69 13 -69 57 0 69
-72 104 -165 81 l-50 -13 -2 -75 c0 -41 -3 -82 -6 -90 -3 -8 -8 -33 -12 -55
-18 -120 -94 -274 -152 -313 -23 -14 -23 -14 -23 29 0 24 5 103 11 174 12 125
11 132 -10 172 -32 64 -137 106 -219 88 l-30 -6 -4 -98 c-3 -83 -8 -105 -33
-156 -35 -69 -80 -109 -96 -85 -10 14 -8 51 8 247 6 72 6 72 -28 106 -27 27
-46 36 -86 42 -29 4 -65 4 -80 1 -24 -6 -28 -11 -29 -44 0 -20 -6 -86 -13
-147 -11 -90 -19 -118 -42 -155 -39 -62 -106 -133 -121 -128 -22 8 -28 60 -26
208 2 167 -8 197 -75 232 -43 22 -123 34 -161 24 -23 -6 -26 -11 -26 -50 l0
-44 -78 -3 c-64 -3 -90 -10 -139 -35 -58 -30 -61 -31 -83 -14 l-24 18 -62
-110 c-95 -166 -171 -258 -215 -258 -36 0 -43 59 -43 337 0 145 3 265 6 269 3
3 39 10 80 15 120 16 118 15 118 55 l0 36 -95 -4 -95 -3 0 101 c0 88 -3 105
-23 134 -33 50 -78 72 -155 76 -37 2 -71 1 -77 -1z m875 -733 c0 -37 -56 -88
-117 -106 -49 -15 -49 73 -1 103 27 17 65 29 96 30 18 1 22 -4 22 -27z m2243
-4 c-6 -36 -28 -58 -85 -88 -45 -24 -68 -17 -68 21 0 51 61 95 137 98 20 1 22
-3 16 -31z"/>
<path d="M13625 6544 c-6 -2 -9 -38 -7 -86 2 -46 1 -120 -3 -164 l-7 -82 -99
-12 c-101 -12 -104 -15 -93 -57 6 -22 11 -23 96 -23 l90 0 -7 -212 c-10 -299
13 -453 75 -513 28 -27 38 -30 90 -29 42 1 75 9 121 31 121 57 208 158 306
351 l53 107 -26 23 -27 23 -42 -78 c-85 -159 -189 -293 -227 -293 -40 0 -43
22 -46 322 -2 158 0 288 3 288 11 0 149 20 173 26 18 3 22 11 22 40 l0 36 -96
-4 -97 -3 6 75 c3 41 1 94 -5 118 -12 50 -60 96 -115 111 -37 11 -118 14 -138
5z"/>
<path d="M7264 6483 c3 -21 -3 -157 -14 -303 -31 -431 -32 -459 -21 -593 16
-194 56 -267 145 -267 46 0 132 37 160 68 15 18 17 26 7 53 -6 18 -14 71 -17
118 -5 84 -4 85 12 61 42 -60 142 -149 176 -155 53 -10 111 19 172 87 l54 59
6 -45 c13 -87 78 -146 162 -146 134 0 331 121 454 278 l54 70 24 -35 24 -35
-23 -51 c-28 -66 -30 -190 -4 -255 52 -128 242 -180 393 -106 45 22 58 35 74
71 36 81 2 170 -131 343 l-81 105 48 6 c77 10 182 -2 241 -27 l53 -24 -7 27
c-8 33 -13 36 -85 64 -108 41 -199 46 -281 14 -12 -4 -25 12 -55 67 -32 62
-38 83 -39 135 0 75 -4 77 -93 32 -101 -50 -134 -114 -111 -214 12 -53 11 -54
-20 -94 -53 -67 -181 -179 -235 -206 -82 -41 -116 -28 -116 44 0 32 1 33 81
46 84 13 149 87 149 167 0 118 -128 159 -297 96 -47 -17 -74 -40 -136 -117
-10 -13 -37 -53 -59 -89 -73 -119 -145 -192 -191 -192 -27 0 -87 73 -129 158
l-42 83 25 17 c175 122 310 388 255 504 -20 42 -51 58 -112 58 -57 0 -89 -17
-142 -74 l-42 -46 0 70 c0 38 -5 81 -11 97 -28 74 -99 112 -208 113 l-74 0 7
-37z m460 -246 c11 -44 -29 -159 -86 -249 -35 -53 -97 -122 -104 -115 -3 2 11
59 30 125 35 119 73 210 104 245 21 24 49 21 56 -6z m604 -431 c5 -37 -29 -73
-81 -87 -21 -6 -41 -8 -44 -6 -8 9 39 107 56 117 9 6 27 9 41 7 19 -1 26 -8
28 -31z m482 -301 c37 -63 42 -135 10 -135 -83 0 -128 97 -103 220 l6 33 29
-34 c16 -19 42 -56 58 -84z"/>
<path d="M894 6476 c4 -18 -2 -150 -13 -292 -32 -419 -33 -443 -22 -577 12
-140 35 -213 79 -247 19 -15 40 -20 91 -20 167 1 329 68 435 180 180 191 164
393 -34 416 l-58 6 38 62 c111 178 103 337 -17 353 -60 8 -107 -12 -165 -70
l-51 -52 7 43 c15 96 -19 172 -94 210 -35 17 -61 22 -123 22 l-79 0 6 -34z
m460 -255 c-2 -68 -72 -213 -138 -286 -56 -62 -58 -49 -16 92 37 126 60 180
95 221 41 48 60 39 59 -27z m96 -426 c16 -10 11 -87 -9 -131 -11 -23 -36 -60
-56 -83 -40 -44 -171 -131 -198 -131 -23 0 -29 33 -31 167 l-1 115 52 30 c84
47 195 63 243 33z"/>
<path d="M3359 6503 l-26 -4 -7 -137 c-3 -75 -13 -225 -22 -332 -20 -239 -15
-507 11 -589 23 -76 61 -111 117 -111 59 0 131 26 168 60 29 28 30 28 13 61
-12 25 -18 70 -21 170 l-4 136 58 32 c86 48 167 139 220 246 77 157 79 260 4
298 -62 32 -140 8 -211 -65 l-39 -40 0 79 c0 66 -4 86 -23 114 -38 58 -152 97
-238 82z m439 -271 c6 -39 -35 -154 -76 -218 -39 -61 -110 -139 -118 -131 -7
7 64 234 87 281 43 84 100 120 107 68z"/>
<path d="M1739 6247 c-88 -59 -59 -197 44 -214 47 -7 79 1 116 33 113 94 -37
264 -160 181z"/>
<path d="M4847 6116 c-128 -46 -176 -142 -132 -265 14 -40 13 -45 -9 -89 -32
-62 -112 -169 -143 -189 -21 -14 -26 -14 -33 -2 -16 25 -23 119 -15 219 8 126
-10 177 -75 210 -46 24 -125 36 -164 26 -24 -6 -26 -11 -24 -49 l3 -42 -80 -6
c-96 -7 -160 -35 -210 -90 -44 -49 -55 -77 -55 -137 0 -83 48 -122 148 -122
43 0 72 7 108 25 27 14 49 25 50 25 1 0 4 -27 7 -60 8 -70 26 -110 64 -140 24
-19 37 -22 98 -18 144 10 278 115 365 287 21 42 22 43 36 23 13 -19 12 -28 -6
-81 -23 -69 -26 -172 -8 -235 41 -135 234 -195 393 -122 138 63 125 183 -43
404 -47 62 -82 115 -79 119 4 3 54 6 111 5 90 0 113 -4 161 -26 l55 -25 0 25
c0 21 -10 30 -61 54 -105 49 -222 59 -310 25 -12 -4 -25 12 -52 64 -40 79 -55
148 -38 180 10 18 9 21 -6 21 -10 -1 -35 -7 -56 -14z m-607 -304 c0 -32 -35
-70 -88 -97 -44 -22 -62 -14 -62 28 0 40 29 71 80 85 60 17 70 15 70 -16z
m669 -242 c46 -57 84 -145 77 -175 -13 -51 -94 -16 -122 51 -20 47 -15 164 6
164 3 0 21 -18 39 -40z"/>
<path d="M2483 6024 c-8 -3 -13 -24 -13 -50 l0 -44 -48 0 c-53 0 -158 -25
-179 -41 -7 -6 -23 -9 -36 -5 -20 5 -26 -1 -41 -32 -72 -151 -203 -297 -251
-278 -24 9 -29 75 -15 203 11 111 11 125 -4 148 -28 42 -62 58 -140 63 l-73 4
-6 -63 c-3 -35 -11 -111 -17 -168 -28 -239 28 -350 169 -337 82 8 168 55 241
132 56 61 63 65 78 51 10 -9 39 -21 66 -27 58 -13 136 4 218 47 29 15 56 29
61 31 4 2 7 -3 7 -11 0 -7 -26 -31 -57 -53 -149 -102 -263 -247 -263 -334 0
-42 43 -137 99 -217 103 -149 215 -223 338 -223 48 0 58 4 83 30 57 61 65 109
65 375 0 132 -2 294 -5 360 l-5 119 150 78 c118 61 149 81 147 95 -9 42 -16
42 -112 -4 -113 -54 -179 -83 -189 -83 -5 0 -11 22 -14 50 -10 82 -39 135 -88
160 -41 21 -141 36 -166 24z m4 -220 c13 -34 -99 -109 -154 -102 -23 2 -29 8
-31 34 -4 37 19 60 74 73 63 15 104 13 111 -5z m8 -681 c-13 -53 -95 -12 -157
76 -64 91 -49 143 74 265 l83 81 3 -200 c1 -110 0 -210 -3 -222z"/>
<path d="M9411 4558 c-71 -20 -132 -71 -169 -143 -22 -43 -26 -63 -26 -135 0
-72 4 -92 26 -135 14 -27 39 -62 55 -76 108 -101 294 -104 400 -6 72 66 88
105 88 217 0 109 -11 138 -78 208 -69 71 -192 100 -296 70z m162 -69 c155 -43
195 -275 67 -382 -88 -75 -252 -54 -314 40 -46 69 -51 176 -12 250 41 81 156
121 259 92z"/>
<path d="M10276 4550 c-243 -95 -230 -473 20 -546 144 -42 286 15 352 141 23
43 27 62 27 135 0 73 -4 92 -27 136 -69 131 -231 189 -372 134z m185 -61 c47
-16 96 -54 114 -88 62 -122 23 -265 -88 -317 -112 -52 -235 -14 -288 88 -93
182 71 381 262 317z"/>
<path d="M3530 4280 l0 -280 35 0 35 0 0 280 0 280 -35 0 -35 0 0 -280z"/>
<path d="M3922 4528 l3 -33 93 -3 92 -3 0 -244 0 -245 40 0 40 0 0 245 0 245
90 0 90 0 0 35 0 35 -226 0 -225 0 3 -32z"/>
<path d="M4842 4513 c-11 -27 -62 -149 -112 -273 -51 -124 -94 -228 -97 -232
-2 -5 13 -8 35 -8 38 0 39 1 63 63 l25 62 138 0 138 0 25 -62 c25 -62 26 -63
63 -63 l39 0 -65 158 c-36 86 -88 212 -116 280 -50 121 -50 122 -83 122 -29 0
-35 -5 -53 -47z m107 -184 c28 -69 51 -129 51 -132 0 -4 -47 -7 -105 -7 -58 0
-105 3 -105 8 0 9 103 262 106 259 1 -1 25 -59 53 -128z"/>
<path d="M5470 4280 l0 -280 170 0 170 0 0 35 0 35 -135 0 -135 0 0 245 0 245
-35 0 -35 0 0 -280z"/>
<path d="M6130 4280 l0 -280 35 0 35 0 0 280 0 280 -35 0 -35 0 0 -280z"/>
<path d="M6632 4288 c-62 -150 -112 -277 -112 -281 0 -5 16 -7 36 -5 34 3 38
6 61 66 l25 63 136 -3 136 -3 25 -62 c25 -61 27 -63 63 -63 l38 0 -17 43 c-9
23 -61 148 -114 277 l-97 235 -34 3 -34 3 -112 -273z m202 35 c25 -62 46 -117
46 -123 0 -6 -39 -10 -106 -10 -97 0 -106 2 -100 18 52 135 102 248 107 239 4
-7 28 -62 53 -124z"/>
<path d="M7350 4280 l0 -280 35 0 35 0 2 215 3 215 150 -213 c138 -195 153
-212 183 -215 l32 -3 0 280 0 281 -30 0 -30 0 0 -216 c0 -118 -4 -213 -8 -210
-5 3 -75 100 -157 215 -142 203 -150 211 -182 211 l-33 0 0 -280z"/>
<path d="M8590 4280 l0 -280 35 0 35 0 0 120 0 120 115 0 115 0 0 30 0 30
-115 0 -115 0 0 95 0 94 123 3 122 3 3 33 3 32 -160 0 -161 0 0 -280z"/>
<path d="M11020 4281 l0 -281 125 0 c182 0 261 34 323 139 24 41 27 56 27 141
0 105 -16 150 -72 201 -65 61 -106 73 -260 77 l-143 4 0 -281z m317 177 c65
-43 88 -89 88 -179 0 -65 -4 -81 -27 -116 -45 -69 -87 -87 -205 -91 l-103 -4
0 212 0 212 104 -4 c91 -3 108 -6 143 -30z"/>
</g>
</svg>
